<?xml version="1.0" encoding="utf-8"?>
<!-- Generator: Adobe Illustrator 26.0.0, SVG Export Plug-In . SVG Version: 6.00 Build 0)  -->
<svg version="1.1" id="图层_1" xmlns="http://www.w3.org/2000/svg" xmlns:xlink="http://www.w3.org/1999/xlink" x="0px" y="0px"
	 viewBox="0 0 203.93 232.32" style="enable-background:new 0 0 203.93 232.32;" xml:space="preserve">
<style type="text/css">
	.st0{fill:#86754D;}
</style>
<g>
	<g>
		<path class="st0" d="M151.69,178.75c-0.01-0.02-0.02-0.05-0.03-0.07c-0.01-0.02-0.03-0.04-0.04-0.06L106.01,99.9
			c-0.02-0.04-0.06-0.07-0.08-0.11c-0.12-0.2-0.26-0.39-0.41-0.57c-0.06-0.07-0.11-0.14-0.17-0.2c-0.18-0.19-0.37-0.38-0.59-0.54
			c-0.06-0.04-0.12-0.08-0.18-0.12c-0.12-0.08-0.23-0.17-0.36-0.24c-0.05-0.03-0.1-0.04-0.14-0.07c-0.16-0.09-0.33-0.16-0.5-0.22
			c-0.14-0.05-0.27-0.11-0.41-0.15c-0.16-0.05-0.32-0.08-0.48-0.11c-0.15-0.03-0.3-0.06-0.46-0.08c-0.16-0.02-0.31-0.01-0.47-0.01
			c-0.16,0-0.31,0-0.47,0.01c-0.15,0.01-0.3,0.05-0.46,0.08c-0.16,0.03-0.33,0.06-0.48,0.11c-0.13,0.04-0.26,0.09-0.38,0.14
			c-0.18,0.07-0.36,0.15-0.53,0.24c-0.04,0.02-0.08,0.03-0.12,0.06c-0.06,0.04-0.12,0.09-0.18,0.13c-0.17,0.11-0.34,0.23-0.5,0.36
			c-0.1,0.08-0.18,0.17-0.27,0.25c-0.14,0.13-0.27,0.27-0.39,0.43c-0.08,0.1-0.16,0.21-0.24,0.32c-0.07,0.1-0.15,0.18-0.21,0.29
			L62.8,159.83c-0.45,0.77-0.66,1.62-0.66,2.46c0,1.69,0.87,3.33,2.44,4.24c0.77,0.45,1.62,0.66,2.45,0.66
			c1.69,0,3.34-0.88,4.25-2.45l30.48-52.61l38.88,67.11c-12.01,6.08-25.34,9.28-38.87,9.28c-15.16,0-30.1-4.02-43.19-11.62
			c-0.05-0.03-0.1-0.04-0.15-0.07c-0.17-0.09-0.35-0.17-0.54-0.24c-0.09-0.04-0.18-0.08-0.27-0.11c-0.26-0.08-0.53-0.14-0.8-0.18
			c-0.12-0.02-0.23-0.02-0.35-0.03c-0.12-0.01-0.24-0.03-0.36-0.03c-0.06,0-0.12,0.01-0.18,0.01c-0.09,0-0.18,0.01-0.27,0.02
			c-0.23,0.02-0.46,0.06-0.69,0.11c-0.04,0.01-0.09,0.02-0.13,0.03c-0.28,0.08-0.55,0.18-0.81,0.3c-0.04,0.02-0.08,0.04-0.12,0.06
			c-0.23,0.12-0.45,0.25-0.66,0.4c-0.03,0.02-0.07,0.05-0.1,0.07c-0.5,0.38-0.92,0.85-1.24,1.4c0,0.01-0.01,0.01-0.02,0.02
			c0,0.01,0,0.01-0.01,0.02c-0.04,0.06-0.08,0.12-0.11,0.19l-23.69,40.88c-0.45,0.77-0.66,1.62-0.66,2.45
			c0,1.69,0.87,3.33,2.44,4.24c0.78,0.45,1.62,0.66,2.46,0.66c1.69,0,3.33-0.88,4.25-2.44l21.41-36.96
			c13.51,6.94,28.55,10.6,43.8,10.6c15.25,0,30.28-3.66,43.79-10.59l21.4,36.95c0.91,1.57,2.56,2.44,4.25,2.44
			c0.83,0,1.67-0.21,2.45-0.66c2.34-1.36,3.14-4.35,1.78-6.7L151.69,178.75z"/>
		<path class="st0" d="M35.3,171.63c1.95,1.87,5.06,1.81,6.93-0.14c1.87-1.95,1.81-5.05-0.14-6.93
			c-17.08-16.41-26.48-38.47-26.48-62.13c0-47.51,38.65-86.17,86.16-86.17c47.51,0,86.17,38.66,86.17,86.17
			c0,23.75-9.46,45.87-26.64,62.29c-1.96,1.87-2.03,4.97-0.16,6.93c0.96,1,2.26,1.51,3.55,1.51c1.22,0,2.44-0.45,3.39-1.36
			c19.13-18.29,29.67-42.93,29.67-69.38c0-52.91-43.05-95.97-95.97-95.97c-52.91,0-95.96,43.05-95.96,95.97
			C5.81,128.78,16.28,153.36,35.3,171.63z"/>
	</g>
</g>
</svg>
